/* XPM */
static char *amogos_left[] = {
/* columns rows colors chars-per-pixel */
"60 73 83 1 ",
"  c black",
". c #010101",
"X c #020202",
"o c #1F0306",
"O c #12181B",
"+ c #141C1F",
"@ c #240406",
"# c #270406",
"$ c #2A0407",
"% c #2F0507",
"& c #1A2327",
"* c #1D262B",
"= c #1E282C",
"- c #520709",
"; c #50070A",
": c #54070A",
"> c #57070A",
", c #5C080A",
"< c #5F080B",
"1 c #61080B",
"2 c #690808",
"3 c #6B0808",
"4 c #6D0908",
"5 c #700909",
"6 c #720909",
"7 c #730909",
"8 c #750909",
"9 c #770A0A",
"0 c #780909",
"q c #7B0A09",
"w c #780A0A",
"e c #7A0A0A",
"r c #7C0A0A",
"t c #7F0A0A",
"y c #31424A",
"u c #354850",
"i c #394D56",
"p c #3F575F",
"a c #415962",
"s c #445C65",
"d c #465F68",
"f c #47606A",
"g c #48626C",
"h c #4A646E",
"j c #4F6B76",
"k c #506D78",
"l c #800A0A",
"z c #820A0A",
"x c #850B0A",
"c c #880B0B",
"v c #9B0D10",
"b c #9D0D10",
"n c #9E0D10",
"m c #A00E10",
"M c #A20E10",
"N c #A70E10",
"B c #AA0E11",
"V c #AF0F11",
"C c #B00F11",
"Z c #B30F11",
"A c #C51111",
"S c #C61111",
"D c #658592",
"F c #6A8C9A",
"G c #6D909E",
"H c #7194A3",
"J c #82ADC0",
"K c #85B0C3",
"L c #88B5C9",
"P c #8BB8CC",
"I c #8EBCD1",
"U c #8FC2D9",
"Y c #92C3DA",
"T c #95C5DB",
"R c #98C7DC",
"E c #99C9DE",
"W c #9ECFE5",
"Q c #A0D1E7",
"! c #C1DEEA",
"~ c #C6E0EB",
"^ c #C9E2ED",
"/ c #FCFEFD",
"( c None",
/* pixels */
"((((((((((((((((((((((((((((((((((((((((((((((((((((((((((((",
"((((((((((((((((((((((((((((((((((((((((((((((((((((((((((((",
"((((((((((((((((((((((((((((((((((((((((((((((((((((((((((((",
"((((((((((((((((((((((((((((((((((((((((((((((((((((((((((((",
"((((((((((((((((((((((((((((((((((((((((((((((((((((((((((((",
"((((((((((((((((((((((((((((((((((((((((((((((((((((((((((((",
"((((((((((((((((((((((((((((((((((((((((((((((((((((((((((((",
"((((((((((((((((((((((((((((((((((((((((((((((((((((((((((((",
"((((((((((((((((((((((((((((((((((((((((((((((((((((((((((((",
"((((((((((((((((((((((((((((((((((((((((((((((((((((((((((((",
"((((((((((((((((((((((..............((((((((((((((((((((((((",
"((((((((((((((((((((.................(((((((((((((((((((((((",
"((((((((((((((((((.....................(((((((((((((((((((((",
"(((((((((((((((((.....otBZAAZZZZZm2....(((((((((((((((((((((",
"((((((((((((((((.....8ZAAAAAAAAAAAAv....((((((((((((((((((((",
"(((((((((((((((.....vAAAAAAAAAAAAAAAn....(((((((((((((((((((",
"((((((((((((((.....vAAAAAAAAAAAAAAAAA2...(((((((((((((((((((",
"((((((((((((((....>nnnnnnnNZAAAAAAAAAZ....((((((((((((((((((",
"(((((((((((((................>xAAAAAAA;...((((((((((((((((((",
"((((((((((((......=asa=........%ZAAAAAe...((((((((((((((((((",
"((((((((((((...yHPRRRRRRULJFy...;AAAAAc...((((((((((((((((((",
"(((((((((((...iT^//////~RRRRYp...NAAAAc%..((((((((((((((((((",
"((((((((((...yI/////////QRRRRD&..vAAAAc%...(((((((((((((((((",
"((((((((((...KW/////////ERRRIhu..vAAAAc;...(((((((((((((((((",
"(((((((((...jRR!^^^^!!!ERRRRGhi..cAAAAc,.......(((((((((((((",
"(((((((((...kTRRRRRRRRRRRRRHhhp..cAAAAc2.........(((((((((((",
"(((((((((...ikJYRRRRRRRRRTGhhhp..cAAAAc3..........((((((((((",
"(((((((((...ihhhDHJJPIIPHkhhhhy..nAAAAz8..;ZZm;...((((((((((",
"(((((((((...=hhhhhhhhhhhhhhhhfO..ZAAAAt9#.;AAAV....(((((((((",
"((((((((((...yhhhhhhhhhhhhhhhy..;AAAAA99%..AAAA;...(((((((((",
"((((((((((....&ighhhhhhhhhhhy...vAAAAA99%..AAAA7...(((((((((",
"(((((((((((.....Oypdhhhhhgi*...-AAAAAZ99%..ZAAZ8...(((((((((",
"(((((((((((.........X+===X....$ZAAAAAB99%..4cc9,...(((((((((",
"(((((((((((...2c-............;BAAAAAAv99%..29w91...(((((((((",
"(((((((((((...cAAZne,@....%eNAAAAAAAAt99%..49992...(((((((((",
"(((((((((((...lAAAAAAAAZZAAAAAAAAAAAZ999%..79992...(((((((((",
"(((((((((((...3AAAAAAAAAAAAAAAAAAAAAB999%..79992...(((((((((",
"(((((((((((...4AAAAAAAAAAAAAAAAAAAAAv999%..29994...(((((((((",
"(((((((((((...1ZAAAAAAAAAAAAAAAAAAAAe999%..49992...(((((((((",
"(((((((((((...2mAAAAAAAAAAAAAAAAAAAZ9999%..299e4...(((((((((",
"(((((((((((...4nAAAAAAAAAAAAAAAAAAAm9999%..2999e...(((((((((",
"(((((((((((...1wAAAAAAAAAAAAAAAAAAAz9999%..49997...(((((((((",
"(((((((((((...,wBAAAAAAAAAAAAAAAAAB99999%..79984...(((((((((",
"(((((((((((...,wlAAAAAAAAAAAAAAAAZe99999;..999e4...(((((((((",
"(((((((((((...-w9cAAAAAAAAAAAAAAZe999999;..99992...(((((((((",
"(((((((((((...;w99cBAAAAAAAAAAZv99999999%.X99992...(((((((((",
"(((((((((((...%w9999wcnmmnncx99999999999%.o99991...(((((((((",
"((((((((((((..@9999999999999999999999999%.%9999;..((((((((((",
"((((((((((((...4999999w99999999999999999%.%w992o..((((((((((",
"((((((((((((...,999999ww9999999999999999o.@24>@...((((((((((",
"((((((((((((...;998,,,221:;%%%1999999999.........(((((((((((",
"((((((((((((...@99w2@.........%999999997.........(((((((((((",
"((((((((((((....79998:$........999999994.......(((((((((((((",
"(((((((((((((...2999ww2........99999999,...(((((((((((((((((",
"(((((((((((((...4999ww2...((...99999999-...(((((((((((((((((",
"(((((((((((((...2999994...((...w9999999;...(((((((((((((((((",
"(((((((((((((...2999992...((..X99999999;...(((((((((((((((((",
"(((((((((((((...199999,...((...79999999%..((((((((((((((((((",
"((((((((((((((..@;:::;@..(((...,9999999X..((((((((((((((((((",
"((((((((((((((...........(((...#799999:...((((((((((((((((((",
"((((((((((((((((........(((((...o;,,,;X...((((((((((((((((((",
"(((((((((((((((((((((((((((((............(((((((((((((((((((",
"((((((((((((((((((((((((((((((..........((((((((((((((((((((",
"(((((((((((((((((((((((((((((((((.....((((((((((((((((((((((",
"((((((((((((((((((((((((((((((((((((((((((((((((((((((((((((",
"((((((((((((((((((((((((((((((((((((((((((((((((((((((((((((",
"((((((((((((((((((((((((((((((((((((((((((((((((((((((((((((",
"((((((((((((((((((((((((((((((((((((((((((((((((((((((((((((",
"((((((((((((((((((((((((((((((((((((((((((((((((((((((((((((",
"((((((((((((((((((((((((((((((((((((((((((((((((((((((((((((",
"((((((((((((((((((((((((((((((((((((((((((((((((((((((((((((",
"((((((((((((((((((((((((((((((((((((((((((((((((((((((((((((",
"(((((((((((((((((((((((((((((((((((((((((((((((((((((((((((("
};
