/* XPM */
static char *amogos_green[] = {
/* columns rows colors chars-per-pixel */
"60 73 9 1 ",
"  c black",
". c #010101",
"X c #226A2F",
"o c #4A646D",
"O c #319122",
"+ c #51F139",
"@ c #98C7DC",
"# c #FBFDFD",
"$ c None",
/* pixels */
"$$$$$$$$$$$$$$$$$$$$$$$$$$$$$$$$$$$$$$$$$$$$$$$$$$$$$$$$$$$$",
"$$$$$$$$$$$$$$$$$$$$$$$$$$$$$$$$$$$$$$$$$$$$$$$$$$$$$$$$$$$$",
"$$$$$$$$$$$$$$$$$$$$$$$$$$$$$$$$$$$$$$$$$$$$$$$$$$$$$$$$$$$$",
"$$$$$$$$$$$$$$$$$$$$$$$$$$$$$$$$$$$$$$$$$$$$$$$$$$$$$$$$$$$$",
"$$$$$$$$$$$$$$$$$$$$$$$$$$$$$$$$$$$$$$$$$$$$$$$$$$$$$$$$$$$$",
"$$$$$$$$$$$$$$$$$$$$$$$$$$$$$$$$$$$$$$$$$$$$$$$$$$$$$$$$$$$$",
"$$$$$$$$$$$$$$$$$$$$$$$$$$$$$$$$$$$$$$$$$$$$$$$$$$$$$$$$$$$$",
"$$$$$$$$$$$$$$$$$$$$$$$$$$$$$$$$$$$$$$$$$$$$$$$$$$$$$$$$$$$$",
"$$$$$$$$$$$$$$$$$$$$$$$$$$$$$$$$$$$$$$$$$$$$$$$$$$$$$$$$$$$$",
"$$$$$$$$$$$$$$$$$$$$$$$$$$$$$$$$$$$$$$$$$$$$$$$$$$$$$$$$$$$$",
"$$$$$$$$$$$$$$$$$$$$$$$$..............$$$$$$$$$$$$$$$$$$$$$$",
"$$$$$$$$$$$$$$$$$$$$$$$.................$$$$$$$$$$$$$$$$$$$$",
"$$$$$$$$$$$$$$$$$$$$$.....................$$$$$$$$$$$$$$$$$$",
"$$$$$$$$$$$$$$$$$$$$$....O++++++++++O......$$$$$$$$$$$$$$$$$",
"$$$$$$$$$$$$$$$$$$$$....O+++++++++++++O.....$$$$$$$$$$$$$$$$",
"$$$$$$$$$$$$$$$$$$$....O+++++++++++++++O.....$$$$$$$$$$$$$$$",
"$$$$$$$$$$$$$$$$$$$...O+++++++++++++++++O.....$$$$$$$$$$$$$$",
"$$$$$$$$$$$$$$$$$$....++++++++++++OOOOOOOX....$$$$$$$$$$$$$$",
"$$$$$$$$$$$$$$$$$$...X+++++++OX................$$$$$$$$$$$$$",
"$$$$$$$$$$$$$$$$$$...O++++++X........XoooX......$$$$$$$$$$$$",
"$$$$$$$$$$$$$$$$$$...O+++++X...Xo@@@@@@@@@@@X...$$$$$$$$$$$$",
"$$$$$$$$$$$$$$$$$$..XO+++++...o@@@@@@#######@o...$$$$$$$$$$$",
"$$$$$$$$$$$$$$$$$...XO++++O...o@@@@@#########@o...$$$$$$$$$$",
"$$$$$$$$$$$$$$$$$...XO++++O..oo@@@@@#########@@...$$$$$$$$$$",
"$$$$$$$$$$$$$.......XO++++O..ooo@@@@@@@@###@@@@o...$$$$$$$$$",
"$$$$$$$$$$$.........OO++++O..ooo@@@@@@@@@@@@@@@o...$$$$$$$$$",
"$$$$$$$$$$..........OO++++O..ooooo@@@@@@@@@@@@oo...$$$$$$$$$",
"$$$$$$$$$$...X+++X..OO++++O..oooooo@@@@@@@oooooo...$$$$$$$$$",
"$$$$$$$$$....++++X..OO+++++...oooooooooooooooooX...$$$$$$$$$",
"$$$$$$$$$...X++++..XOO+++++X..XoooooooooooooooX...$$$$$$$$$$",
"$$$$$$$$$...O++++..XOO+++++O...Xooooooooooooo.....$$$$$$$$$$",
"$$$$$$$$$...O++++..XOO++++++X....oooooooooX......$$$$$$$$$$$",
"$$$$$$$$$...XOOOO..XOO+++++++......XXX...........$$$$$$$$$$$",
"$$$$$$$$$...OOOOO..XOOO+++++++X............XOO...$$$$$$$$$$$",
"$$$$$$$$$...OOOOO..XOOO+++++++++OX....XXO++++O...$$$$$$$$$$$",
"$$$$$$$$$...OOOOO..XOOO++++++++++++++++++++++O...$$$$$$$$$$$",
"$$$$$$$$$...OOOOO..XOOO++++++++++++++++++++++X...$$$$$$$$$$$",
"$$$$$$$$$...OOOOO..XOOOO+++++++++++++++++++++X...$$$$$$$$$$$",
"$$$$$$$$$...OOOOO..XOOOO+++++++++++++++++++++X...$$$$$$$$$$$",
"$$$$$$$$$...OOOOO..XOOOO+++++++++++++++++++++O...$$$$$$$$$$$",
"$$$$$$$$$...OOOOO..XOOOOO+++++++++++++++++++OO...$$$$$$$$$$$",
"$$$$$$$$$...OOOOO..XOOOOO+++++++++++++++++++OO...$$$$$$$$$$$",
"$$$$$$$$$...OOOOO..XOOOOO+++++++++++++++++++OX...$$$$$$$$$$$",
"$$$$$$$$$...OOOOO..XOOOOOO+++++++++++++++++OOX...$$$$$$$$$$$",
"$$$$$$$$$...OOOOO..XOOOOOOO+++++++++++++++OOOX...$$$$$$$$$$$",
"$$$$$$$$$...OOOOO..XOOOOOOOOO++++++++++++OOOOX...$$$$$$$$$$$",
"$$$$$$$$$...XOOOO..XOOOOOOOOOOOOOOOOOOOOOOOOOX...$$$$$$$$$$$",
"$$$$$$$$$$..XOOOOX.XOOOOOOOOOOOOOOOOOOOOOOOOO...$$$$$$$$$$$$",
"$$$$$$$$$$...OOOOX.XOOOOOOOOOOOOOOOOOOOOOOOOO...$$$$$$$$$$$$",
"$$$$$$$$$$....XOO...OOOOOOOOOOOOOOOOOOOOOOOOX...$$$$$$$$$$$$",
"$$$$$$$$$$$.........OOOOOOOOOOXXXXXXOOXXXOOOX...$$$$$$$$$$$$",
"$$$$$$$$$$$.........OOOOOOOOOX..........OOOO....$$$$$$$$$$$$",
"$$$$$$$$$$$$$.......OOOOOOOOO.........XOOOOO....$$$$$$$$$$$$",
"$$$$$$$$$$$$$$$$$...XOOOOOOOO....$...OOOOOOO...$$$$$$$$$$$$$",
"$$$$$$$$$$$$$$$$$...XOOOOOOOO...$$...OOOOOOO...$$$$$$$$$$$$$",
"$$$$$$$$$$$$$$$$$...XOOOOOOOO...$$...OOOOOOO...$$$$$$$$$$$$$",
"$$$$$$$$$$$$$$$$$...XOOOOOOOO...$$...OOOOOOO...$$$$$$$$$$$$$",
"$$$$$$$$$$$$$$$$$$..XOOOOOOOO...$$...XOOOOOO...$$$$$$$$$$$$$",
"$$$$$$$$$$$$$$$$$$...OOOOOOOX...$$$...XXXXX...$$$$$$$$$$$$$$",
"$$$$$$$$$$$$$$$$$$...XOOOOOO....$$$...........$$$$$$$$$$$$$$",
"$$$$$$$$$$$$$$$$$$....XXXXX....$$$$$........$$$$$$$$$$$$$$$$",
"$$$$$$$$$$$$$$$$$$$............$$$$$$$$$$$$$$$$$$$$$$$$$$$$$",
"$$$$$$$$$$$$$$$$$$$$..........$$$$$$$$$$$$$$$$$$$$$$$$$$$$$$",
"$$$$$$$$$$$$$$$$$$$$$$.....$$$$$$$$$$$$$$$$$$$$$$$$$$$$$$$$$",
"$$$$$$$$$$$$$$$$$$$$$$$$$$$$$$$$$$$$$$$$$$$$$$$$$$$$$$$$$$$$",
"$$$$$$$$$$$$$$$$$$$$$$$$$$$$$$$$$$$$$$$$$$$$$$$$$$$$$$$$$$$$",
"$$$$$$$$$$$$$$$$$$$$$$$$$$$$$$$$$$$$$$$$$$$$$$$$$$$$$$$$$$$$",
"$$$$$$$$$$$$$$$$$$$$$$$$$$$$$$$$$$$$$$$$$$$$$$$$$$$$$$$$$$$$",
"$$$$$$$$$$$$$$$$$$$$$$$$$$$$$$$$$$$$$$$$$$$$$$$$$$$$$$$$$$$$",
"$$$$$$$$$$$$$$$$$$$$$$$$$$$$$$$$$$$$$$$$$$$$$$$$$$$$$$$$$$$$",
"$$$$$$$$$$$$$$$$$$$$$$$$$$$$$$$$$$$$$$$$$$$$$$$$$$$$$$$$$$$$",
"$$$$$$$$$$$$$$$$$$$$$$$$$$$$$$$$$$$$$$$$$$$$$$$$$$$$$$$$$$$$",
"$$$$$$$$$$$$$$$$$$$$$$$$$$$$$$$$$$$$$$$$$$$$$$$$$$$$$$$$$$$$"
};
