/* XPM */
static char *amogos_dead[] = {
/* columns rows colors chars-per-pixel */
"73 60 83 1 ",
"  c black",
". c #010101",
"X c #020202",
"o c #1F0306",
"O c #12181B",
"+ c #141C1F",
"@ c #240406",
"# c #270406",
"$ c #2A0407",
"% c #2F0507",
"& c #1A2327",
"* c #1D262B",
"= c #1E282C",
"- c #520709",
"; c #50070A",
": c #54070A",
"> c #57070A",
", c #5C080A",
"< c #5F080B",
"1 c #61080B",
"2 c #690808",
"3 c #6B0808",
"4 c #6D0908",
"5 c #700909",
"6 c #720909",
"7 c #730909",
"8 c #750909",
"9 c #770A0A",
"0 c #780909",
"q c #7B0A09",
"w c #780A0A",
"e c #7A0A0A",
"r c #7C0A0A",
"t c #7F0A0A",
"y c #31424A",
"u c #354850",
"i c #394D56",
"p c #3F575F",
"a c #415962",
"s c #445C65",
"d c #465F68",
"f c #47606A",
"g c #48626C",
"h c #4A646E",
"j c #4F6B76",
"k c #506D78",
"l c #800A0A",
"z c #820A0A",
"x c #850B0A",
"c c #880B0B",
"v c #9B0D10",
"b c #9D0D10",
"n c #9E0D10",
"m c #A00E10",
"M c #A20E10",
"N c #A70E10",
"B c #AA0E11",
"V c #AF0F11",
"C c #B00F11",
"Z c #B30F11",
"A c #C51111",
"S c #C61111",
"D c #658592",
"F c #6A8C9A",
"G c #6D909E",
"H c #7194A3",
"J c #82ADC0",
"K c #85B0C3",
"L c #88B5C9",
"P c #8BB8CC",
"I c #8EBCD1",
"U c #8FC2D9",
"Y c #92C3DA",
"T c #95C5DB",
"R c #98C7DC",
"E c #99C9DE",
"W c #9ECFE5",
"Q c #A0D1E7",
"! c #C1DEEA",
"~ c #C6E0EB",
"^ c #C9E2ED",
"/ c #FCFEFD",
"( c None",
/* pixels */
"(((((((((((((((((((((((((((((((((((((((((((((((((((((((((((((((((((((((((",
"(((((((((((((((((((((((((((((((((((((((((((((((((((((((((((((((((((((((((",
"(((((((((((((((((((((((((((((((((((((((((((((((((((((((((((((((((((((((((",
"(((((((((((((((((((((((((((((((((((((((((((((((((((((((((((((((((((((((((",
"(((((((((((((((((((((((((((((((((((((((((((((((((((((((((((((((((((((((((",
"(((((((((((((((((((((((((((((((((((((((((((((((((((((((((((((((((((((((((",
"(((((((((((((((((((((((((((((((((((((((((((((((((((((((((((((((((((((((((",
"(((((((((((((((((((((((((((((((((((((((((((((((((((((((((((((((((((((((((",
"(((((((((((((((((((((((((((((((((((((((((((((((((((((((((((((((((((((((((",
"((((((((((((((((((((((((((...................((((((((((((((((((((((((((((",
"(((((((((((((((((((((((........................((((((((((((((((((((((((((",
"(((((((((((((((((((((...........................(((((((((((((((((((((((((",
"(((((((((((((((((((((...@;<33345w534332<<59;....(((((((((((((((((((((((((",
"((((((((((((((((((((...o39999999ww999999wZAAV;...((((((((((((((((((((((((",
"((((((((((((((((((((...,9999999999999999cAAAAm...((((((((((((((((((((((((",
"((((((((((((((((((((...49999999999999999cAAAAZ...((((((((((((((((((((((((",
"((((((((((((((((((((...3999w9954333455434ZAAAV...((((((((((((((((((((((((",
"((((((((((((((((.......o%%o.................;;.....((((((((((((((((((((((",
"((((((((((((............................................(((((((((((((((((",
"(((((((((((............o%%%%;;%%%%%%%%%%%%%%#.............(((((((((((((((",
"((((((((((.....%;;;<35ww9999999999999999w999ww43<;%%.......((((((((((((((",
"((((((((((...:999ww9999w99999999999999999999rzxccxcccw;......((((((((((((",
"(((((((((...;9999999999999999999999999zvBZAAAAAAAAAAAAAZ4....((((((((((((",
"(((((((((...<999999999999999999999evBZAAAAAAAAAAAAAAAAAAAb....(((((((((((",
"(((((((((...,999999999999999999zmZAAAAAAAAAAAAAAAAAAAAAAAAv....((((((((((",
"(((((((((...<999999999999999wrBAAAAAAAAAAAAAAAAAAAAAAAAAAAA3...((((((((((",
"(((((((((...;999999999999999wZAAAAAAAAAAAAAAZbxccvvNAAAAAAAb...((((((((((",
"((((((((((..o599999999999999ZAAAAAAAAAAAAAv;........;ZAAAAAZ...((((((((((",
"((((((((((...#<599999999999vAAAAAAAAAAAAZ;...........%AAAAAZ...((((((((((",
"((((((((((...........%19999ZAAAAAAAAAAAB$...Oyppiu&...cAAAAZ...((((((((((",
"(((((((((((...........%9999AAAAAAAAAAAA;...yfhhhhhDp..>AAAAZ...((((((((((",
"(((((((((((((.........%999xAAAAAAAAAAAN...yhhhhhGIRYy..AAAAZ...((((((((((",
"(((((((((((((((((((...%999cAAAAAAAAAAAw..=hhhhhHRRRRF..ZAAAA...((((((((((",
"(((((((((((((((((((...;w99bAAAAAAAAAAA%..ihhhhGRRRRRJ..NAAAA...((((((((((",
"(((((((((((((((.......:w99bAAAAAAAAAAA...ghhhkTRRRRRL..bAAAZ...((((((((((",
"(((((((((((((.........<999mAAAAAAAAAAZ..=hhhhHRRREQRY..bAAAN...((((((((((",
"((((((((((((..........2999mAAAAAAAAAAZ..=hhhhPRRE//~R..mAAAr...((((((((((",
"((((((((((((..@,3433$.2999bAAAAAAAAAAA..=hhhhIRR!///R=.bAAZo...((((((((((",
"((((((((((((..;w9999:.<99wcAAAAAAAAAAA#.+hhhhIRR!///Ra.bAA9...(((((((((((",
"((((((((((((..:w99997@<99wwAAAAAAAAAAA<..hhhhPRR!///Rs.bAb....(((((((((((",
"((((((((((((..:w999993,9999BAAAAAAAAAAw..dhhhJRR^///Ra.mv....((((((((((((",
"((((((((((((..:999999999999cAAAAAAAAAAb..phhhJRR^///R=.:.....((((((((((((",
"((((((((((((..;9999999999999cAAAAAAAAAZ..yhhhHRR^///P.......(((((((((((((",
"((((((((((((..o13343499999999zBAAAAAAAA;.OghhDRR^//^H......((((((((((((((",
"(((((((((((((........o;,499999wwvmZAAAAc..ihhhYR!//Ty.....(((((((((((((((",
"(((((((((((((............#%;;<1133143zc3..&hhhJRRWIi.....((((((((((((((((",
"(((((((((((((((............................yhhkTEJy....((((((((((((((((((",
"((((((((((((((((((((........................=iikj.....(((((((((((((((((((",
"((((((((((((((((((((((((((..........................(((((((((((((((((((((",
"((((((((((((((((((((((((((((((((((((((((((.........((((((((((((((((((((((",
"((((((((((((((((((((((((((((((((((((((((((((.....((((((((((((((((((((((((",
"(((((((((((((((((((((((((((((((((((((((((((((((((((((((((((((((((((((((((",
"(((((((((((((((((((((((((((((((((((((((((((((((((((((((((((((((((((((((((",
"(((((((((((((((((((((((((((((((((((((((((((((((((((((((((((((((((((((((((",
"(((((((((((((((((((((((((((((((((((((((((((((((((((((((((((((((((((((((((",
"(((((((((((((((((((((((((((((((((((((((((((((((((((((((((((((((((((((((((",
"(((((((((((((((((((((((((((((((((((((((((((((((((((((((((((((((((((((((((",
"(((((((((((((((((((((((((((((((((((((((((((((((((((((((((((((((((((((((((",
"(((((((((((((((((((((((((((((((((((((((((((((((((((((((((((((((((((((((((",
"((((((((((((((((((((((((((((((((((((((((((((((((((((((((((((((((((((((((("
};
