/* XPM */
static char *amogoshd[] = {
/* columns rows colors chars-per-pixel */
"60 73 83 1 ",
"  c black",
". c #010101",
"X c #020202",
"o c #1F0306",
"O c #12181B",
"+ c #141C1F",
"@ c #240406",
"# c #270406",
"$ c #2A0407",
"% c #2F0507",
"& c #1A2327",
"* c #1D262B",
"= c #1E282C",
"- c #520709",
"; c #50070A",
": c #54070A",
"> c #57070A",
", c #5C080A",
"< c #5F080B",
"1 c #61080B",
"2 c #690808",
"3 c #6B0808",
"4 c #6D0908",
"5 c #700909",
"6 c #720909",
"7 c #730909",
"8 c #750909",
"9 c #770A0A",
"0 c #780909",
"q c #7B0A09",
"w c #780A0A",
"e c #7A0A0A",
"r c #7C0A0A",
"t c #7F0A0A",
"y c #31424A",
"u c #354850",
"i c #394D56",
"p c #3F575F",
"a c #415962",
"s c #445C65",
"d c #465F68",
"f c #47606A",
"g c #48626C",
"h c #4A646E",
"j c #4F6B76",
"k c #506D78",
"l c #800A0A",
"z c #820A0A",
"x c #850B0A",
"c c #880B0B",
"v c #9B0D10",
"b c #9D0D10",
"n c #9E0D10",
"m c #A00E10",
"M c #A20E10",
"N c #A70E10",
"B c #AA0E11",
"V c #AF0F11",
"C c #B00F11",
"Z c #B30F11",
"A c #C51111",
"S c #C61111",
"D c #658592",
"F c #6A8C9A",
"G c #6D909E",
"H c #7194A3",
"J c #82ADC0",
"K c #85B0C3",
"L c #88B5C9",
"P c #8BB8CC",
"I c #8EBCD1",
"U c #8FC2D9",
"Y c #92C3DA",
"T c #95C5DB",
"R c #98C7DC",
"E c #99C9DE",
"W c #9ECFE5",
"Q c #A0D1E7",
"! c #C1DEEA",
"~ c #C6E0EB",
"^ c #C9E2ED",
"/ c #FCFEFD",
"( c None",
/* pixels */
"((((((((((((((((((((((((((((((((((((((((((((((((((((((((((((",
"((((((((((((((((((((((((((((((((((((((((((((((((((((((((((((",
"((((((((((((((((((((((((((((((((((((((((((((((((((((((((((((",
"((((((((((((((((((((((((((((((((((((((((((((((((((((((((((((",
"((((((((((((((((((((((((((((((((((((((((((((((((((((((((((((",
"((((((((((((((((((((((((((((((((((((((((((((((((((((((((((((",
"((((((((((((((((((((((((((((((((((((((((((((((((((((((((((((",
"((((((((((((((((((((((((((((((((((((((((((((((((((((((((((((",
"((((((((((((((((((((((((((((((((((((((((((((((((((((((((((((",
"((((((((((((((((((((((((((((((((((((((((((((((((((((((((((((",
"((((((((((((((((((((((((..............((((((((((((((((((((((",
"(((((((((((((((((((((((.................((((((((((((((((((((",
"(((((((((((((((((((((.....................((((((((((((((((((",
"(((((((((((((((((((((....3mZZZZZAAZNzo.....(((((((((((((((((",
"((((((((((((((((((((...XvAAAAAAAAAAAAZ8.....((((((((((((((((",
"(((((((((((((((((((....vAAAAAAAAAAAAAAAv.....(((((((((((((((",
"(((((((((((((((((((...3AAAAAAAAAAAAAAAAAn.....((((((((((((((",
"((((((((((((((((((....ZAAAAAAAAAZNnnnnnnn>....((((((((((((((",
"((((((((((((((((((...;AAAAAAAc>................(((((((((((((",
"((((((((((((((((((...0AAAAAV%........=asa=......((((((((((((",
"((((((((((((((((((...cAAAAA;...yFJLURRRRRRPHyXX.((((((((((((",
"((((((((((((((((((..%cAAAAN...pYRRRR~//////^TiX..(((((((((((",
"(((((((((((((((((...%cAAAAn..&DERRRQ/////////IyX..((((((((((",
"(((((((((((((((((...;cAAAAv.XyhIRRRE/////////WKX..((((((((((",
"(((((((((((((.......,xAAAAc..ihGRRRRE!!!^^^^QWRj...(((((((((",
"(((((((((((.........3cAAAAc..phhHRRRRRRRRRRREERj...(((((((((",
"((((((((((..........4xAAAAc..phhhGTRRRRRRRRRRJji...(((((((((",
"((((((((((...;MZZ;..9zAAAAn..yhhhhkHPIIPJJHDhhhi...(((((((((",
"(((((((((....VAAA;.#8lAAAAZ..Oghhhhhhhhhhhhhhhh=...(((((((((",
"(((((((((...;AAAA..%90AAAAA;..yhhhhhhhhhhhhhhhy...((((((((((",
"(((((((((...7AAAA..%99AAAAAv...yhhhhhhhhhhhhi&....((((((((((",
"(((((((((...8ZAAZ..%99ZAAAAA;...*ighhhhhfpyO.....(((((((((((",
"(((((((((...<9cx4..%99VAAAAAZ$.....===+..........(((((((((((",
"(((((((((...<9w93..%98vAAAAAAB;............;c3...(((((((((((",
"(((((((((...39997..%99rAAAAAAAAN0%....#<evZAAc...(((((((((((",
"(((((((((..X29994..%999ZAAAAAAAAAAAZZAAAAAAAAz...(((((((((((",
"(((((((((...39997..%999BAAAAAAAAAAAAAAAAAAAAA3...(((((((((((",
"(((((((((...49993..%999vAAAAAAAAAAAAAAAAAAAAA4...(((((((((((",
"(((((((((...49993..%999eAAAAAAAAAAAAAAAAAAAAZ1...(((((((((((",
"(((((((((...49993..%9999ZAAAAAAAAAAAAAAAAAAAM3...(((((((((((",
"(((((((((...e9993..%9999mAAAAAAAAAAAAAAAAAAAv3...(((((((((((",
"(((((((((...79994..%9999zAAAAAAAAAAAAAAAAAAAe1...(((((((((((",
"(((((((((...49994..%99999BAAAAAAAAAAAAAAAAAB9<...(((((((((((",
"(((((((((...3999e..;99999eZAAAAAAAAAAAAAAAAl8<...(((((((((((",
"(((((((((...39999..;999999rZAAAAAAAAAAAAAAc99;...(((((((((((",
"(((((((((...39999X.%99999999vZAAAAAAAAAABc99w;...(((((((((((",
"(((((((((...19999o.%99999999999xxnnMMnxw9999w%...(((((((((((",
"((((((((((..;9999%.%999999999999w999999999999#..((((((((((((",
"((((((((((..o3999%.%9999999999999999999999994...((((((((((((",
"((((((((((...o:73o.o9999999999999999999e9999,...((((((((((((",
"(((((((((((.........9999999991%%%;:132,,,899;...((((((((((((",
"(((((((((((.........799999999%.........@3999o...((((((((((((",
"(((((((((((((.......399999999........#:89997....((((((((((((",
"(((((((((((((((((...<99999999........3e99993...(((((((((((((",
"(((((((((((((((((...;e9999999...((...3999994...(((((((((((((",
"(((((((((((((((((...;99999999...((...3999993...(((((((((((((",
"(((((((((((((((((...;99999999...((...3999993...(((((((((((((",
"((((((((((((((((((..%99999997...((...,999e91...(((((((((((((",
"((((((((((((((((((..X8e99999<...(((..@;:::;o..((((((((((((((",
"((((((((((((((((((...:999994#...(((...........((((((((((((((",
"((((((((((((((((((...X;,<,;o...(((((........((((((((((((((((",
"(((((((((((((((((((............(((((((((((((((((((((((((((((",
"((((((((((((((((((((..........((((((((((((((((((((((((((((((",
"((((((((((((((((((((((.....(((((((((((((((((((((((((((((((((",
"((((((((((((((((((((((((((((((((((((((((((((((((((((((((((((",
"((((((((((((((((((((((((((((((((((((((((((((((((((((((((((((",
"((((((((((((((((((((((((((((((((((((((((((((((((((((((((((((",
"((((((((((((((((((((((((((((((((((((((((((((((((((((((((((((",
"((((((((((((((((((((((((((((((((((((((((((((((((((((((((((((",
"((((((((((((((((((((((((((((((((((((((((((((((((((((((((((((",
"((((((((((((((((((((((((((((((((((((((((((((((((((((((((((((",
"((((((((((((((((((((((((((((((((((((((((((((((((((((((((((((",
"(((((((((((((((((((((((((((((((((((((((((((((((((((((((((((("
};
