/* XPM */
static char *bomb[] = {
/* columns rows colors chars-per-pixel */
"64 64 9 1 ",
"  c #14182E",
". c #291D2B",
"X c #52333F",
"o c #2C354D",
"O c #404973",
"+ c #8F4D57",
"@ c #BD6A62",
"# c #686F99",
"$ c #A3A7C2",
/* pixels */
"................................................................",
"................................................................",
"................................................................",
"................................................................",
"............                    ................................",
"............                    ................................",
"............                    ................................",
"............                    ................................",
"........    ++++@@@@++++@@@@++++    ............................",
"........    ++++@@@@++++@@@@++++    ............................",
"........    ++++@@@@++++@@@@++++    ............................",
"........    ++++@@@@++++@@@@++++    ............................",
"............                XXXX    ............................",
"............                XXXX    ............................",
"............                XXXX    ............................",
"............                XXXX    ............................",
"........................                ........................",
"........................                ........................",
"........................                ........................",
"........................                ........................",
"........................                ........................",
"........................                ........................",
"........................                ........................",
"........................                ........................",
"....................    $$$$$$$$OOOOOOOO    ....................",
"....................    $$$$$$$$OOOOOOOO    ....................",
"....................    $$$$$$$$OOOOOOOO    ....................",
"....................    $$$$$$$$OOOOOOOO    ....................",
"................    $$$$############OOOOoooo    ................",
"................    $$$$############OOOOoooo    ................",
"................    $$$$############OOOOoooo    ................",
"................    $$$$############OOOOoooo    ................",
"............    $$$$################OOOOOOOOoooo    ............",
"............    $$$$################OOOOOOOOoooo    ............",
"............    $$$$################OOOOOOOOoooo    ............",
"............    $$$$################OOOOOOOOoooo    ............",
"............    $$$$################OOOOOOOOoooo    ............",
"............    $$$$################OOOOOOOOoooo    ............",
"............    $$$$################OOOOOOOOoooo    ............",
"............    $$$$################OOOOOOOOoooo    ............",
"............    OOOO############OOOOOOOOoooooooo    ............",
"............    OOOO############OOOOOOOOoooooooo    ............",
"............    OOOO############OOOOOOOOoooooooo    ............",
"............    OOOO############OOOOOOOOoooooooo    ............",
"............    ooooOOOOOOOOOOOOOOOOoooooooo        ............",
"............    ooooOOOOOOOOOOOOOOOOoooooooo        ............",
"............    ooooOOOOOOOOOOOOOOOOoooooooo        ............",
"............    ooooOOOOOOOOOOOOOOOOoooooooo        ............",
"................    oooooooooooooooooooo        ................",
"................    oooooooooooooooooooo        ................",
"................    oooooooooooooooooooo        ................",
"................    oooooooooooooooooooo        ................",
"....................    oooooooo            ....................",
"....................    oooooooo            ....................",
"....................    oooooooo            ....................",
"....................    oooooooo            ....................",
"........................                ........................",
"........................                ........................",
"........................                ........................",
"........................                ........................",
"................................................................",
"................................................................",
"................................................................",
"................................................................"
};
