/* XPM */
static char *bomb[] = {
/* columns rows colors chars-per-pixel */
"16 16 9 1 ",
"  c #14182E",
". c #291D2B",
"X c #52333F",
"o c #2C354D",
"O c #404973",
"+ c #8F4D57",
"@ c #BD6A62",
"# c #686F99",
"$ c #A3A7C2",
/* pixels */
"................",
"...     ........",
".. +@+@+ .......",
"...    X .......",
"......    ......",
"......    ......",
"..... $$OO .....",
".... $###Oo ....",
"... $####OOo ...",
"... $####OOo ...",
"... O###OOoo ...",
"... oOOOOoo  ...",
".... ooooo  ....",
"..... oo   .....",
"......    ......",
"................"
};
