/* XPM */
static char * coin64_xpm[] = {
"64 64 5 1",
" 	c #291D2B",
".	c #14182E",
"+	c #FFEE83",
"@	c #CF752B",
"#	c #F0B541",
"                                                                ",
"                                                                ",
"                                                                ",
"                                                                ",
"                                                                ",
"                                                                ",
"                                                                ",
"                                                                ",
"                                                                ",
"                                                                ",
"                                                                ",
"                                                                ",
"                                                                ",
"                                                                ",
"                                                                ",
"                                                                ",
"                            ########                            ",
"                            ########                            ",
"                            ########                            ",
"                            ########                            ",
"                        ################                        ",
"                        ################                        ",
"                        ################                        ",
"                        ################                        ",
"                    ########################                    ",
"                    ########################                    ",
"                    ########################                    ",
"                    ########################                    ",
"                    ########################                    ",
"                    ########################                    ",
"                    ########################                    ",
"                    ########################                    ",
"                    ########################                    ",
"                    ########################                    ",
"                    ########################                    ",
"                    ########################                    ",
"                    ########################                    ",
"                    ########################                    ",
"                    ########################                    ",
"                    ########################                    ",
"                        ################                        ",
"                        ################                        ",
"                        ################                        ",
"                        ################                        ",
"                            ########                            ",
"                            ########                            ",
"                            ########                            ",
"                            ########                            ",
"                                                                ",
"                                                                ",
"                                                                ",
"                                                                ",
"                                                                ",
"                                                                ",
"                                                                ",
"                                                                ",
"                                                                ",
"                                                                ",
"                                                                ",
"                                                                ",
"                                                                ",
"                                                                ",
"                                                                ",
"                                                                "};
