/* XPM */
static char *coin[] = {
/* columns rows colors chars-per-pixel */
"16 16 5 1 ",
"  c #14182E",
". c #291D2B",
"X c #CF752B",
"o c #F0B541",
"O c #FFEE83",
/* pixels */
"................",
"................",
"................",
"................",
".......  .......",
"...... OO ......",
"..... OXXo .....",
"..... OXoo .....",
"..... oXoo .....",
"..... OXoo .....",
"...... oo ......",
".......  .......",
"................",
"................",
"................",
"................"
};
