/* XPM */
static char * door_open64_xpm[] = {
"64 64 4 1",
" 	c #14182E",
".	c #BD6A62",
"+	c #8F4D97",
"@	c #52333F",
"                                                                ",
"                                                                ",
"                                                                ",
"                                                                ",
"    ++++++++++++++++++++++++++++++++++++++++++++++++++++++++    ",
"    ++++++++++++++++++++++++++++++++++++++++++++++++++++++++    ",
"    ++++++++++++++++++++++++++++++++++++++++++++++++++++++++    ",
"    ++++++++++++++++++++++++++++++++++++++++++++++++++++++++    ",
"    ++++++++++++++++++++++++++++++++++++++++++++++++++++++++    ",
"    ++++++++++++++++++++++++++++++++++++++++++++++++++++++++    ",
"    ++++++++++++++++++++++++++++++++++++++++++++++++++++++++    ",
"    ++++++++++++++++++++++++++++++++++++++++++++++++++++++++    ",
"                                                                ",
"                                                                ",
"                                                                ",
"                                                                ",
"    ++++++++                                        ++++++++    ",
"    ++++++++                                        ++++++++    ",
"    ++++++++                                        ++++++++    ",
"    ++++++++                                        ++++++++    ",
"    ++++++++                                        ++++++++    ",
"    ++++++++                                        ++++++++    ",
"    ++++++++                                        ++++++++    ",
"    ++++++++                                        ++++++++    ",
"    ++++++++                                        ++++++++    ",
"    ++++++++                                        ++++++++    ",
"    ++++++++                                        ++++++++    ",
"    ++++++++                                        ++++++++    ",
"    ++++++++                                        ++++++++    ",
"    ++++++++                                        ++++++++    ",
"    ++++++++                                        ++++++++    ",
"    ++++++++                                        ++++++++    ",
"    ++++++++                                        ++++++++    ",
"    ++++++++                                        ++++++++    ",
"    ++++++++                                        ++++++++    ",
"    ++++++++                                        ++++++++    ",
"    ++++++++                                        ++++++++    ",
"    ++++++++                                        ++++++++    ",
"    ++++++++                                        ++++++++    ",
"    ++++++++                                        ++++++++    ",
"    ++++++++                                        ++++++++    ",
"    ++++++++                                        ++++++++    ",
"    ++++++++                                        ++++++++    ",
"    ++++++++                                        ++++++++    ",
"    ++++++++                                        ++++++++    ",
"    ++++++++                                        ++++++++    ",
"    ++++++++                                        ++++++++    ",
"    ++++++++                                        ++++++++    ",
"    ++++++++                                        ++++++++    ",
"    ++++++++                                        ++++++++    ",
"    ++++++++                                        ++++++++    ",
"    ++++++++                                        ++++++++    ",
"    ++++++++                                        ++++++++    ",
"    ++++++++                                        ++++++++    ",
"    ++++++++                                        ++++++++    ",
"    ++++++++                                        ++++++++    ",
"    ++++++++                                        ++++++++    ",
"    ++++++++                                        ++++++++    ",
"    ++++++++                                        ++++++++    ",
"    ++++++++                                        ++++++++    ",
"                                                                ",
"                                                                ",
"                                                                ",
"                                                                "};
