/* XPM */
static char *door_open[] = {
/* columns rows colors chars-per-pixel */
"16 16 4 1 ",
"  c #14182E",
". c #52333F",
"X c #8F4D57",
"o c #BD6A62",
/* pixels */
"                ",
" oooXooXoXoXXX. ",
" XXXXXXXXXXXX.. ",
"                ",
" ..          .. ",
" X.          X. ",
" XX          oX ",
" oX          oX ",
" oX          XX ",
" XX          oX ",
" oX          XX ",
" XX          XX ",
" X.          X. ",
" .X          X. ",
" ..          .. ",
"                "
};
