/* XPM */
static char *door_closed64[] = {
/* columns rows colors chars-per-pixel */
"64 64 4 1 ",
"  c #14182E",
". c #52333F",
"X c #8F4DF7",
"o c #BD6A62",
/* pixels */
"                                                                ",
"                                                                ",
"                                                                ",
"                                                                ",
"    ooooooooooooXXXXooooooooXXXXooooXXXXooooXXXXXXXXXXXXoooo    ",
"    ooooooooooooXXXXooooooooXXXXooooXXXXooooXXXXXXXXXXXXoooo    ",
"    ooooooooooooXXXXooooooooXXXXooooXXXXooooXXXXXXXXXXXXoooo    ",
"    ooooooooooooXXXXooooooooXXXXooooXXXXooooXXXXXXXXXXXXoooo    ",
"    XXXXXXXXXXXXXXXXXXXXXXXXXXXXXXXXXXXXXXXXXXXXXXXXoooooooo    ",
"    XXXXXXXXXXXXXXXXXXXXXXXXXXXXXXXXXXXXXXXXXXXXXXXXoooooooo    ",
"    XXXXXXXXXXXXXXXXXXXXXXXXXXXXXXXXXXXXXXXXXXXXXXXXoooooooo    ",
"    XXXXXXXXXXXXXXXXXXXXXXXXXXXXXXXXXXXXXXXXXXXXXXXXoooooooo    ",
"                                                                ",
"                                                                ",
"                                                                ",
"                                                                ",
"    oooooooo    oooooooooooooooooooooooooooooooo    oooooooo    ",
"    oooooooo    oooooooooooooooooooooooooooooooo    oooooooo    ",
"    oooooooo    oooooooooooooooooooooooooooooooo    oooooooo    ",
"    oooooooo    oooooooooooooooooooooooooooooooo    oooooooo    ",
"    XXXXoooo    ooooooooXXXXXXXXXXXXXXXXXXXXoooo    XXXXoooo    ",
"    XXXXoooo    ooooooooXXXXXXXXXXXXXXXXXXXXoooo    XXXXoooo    ",
"    XXXXoooo    ooooooooXXXXXXXXXXXXXXXXXXXXoooo    XXXXoooo    ",
"    XXXXoooo    ooooooooXXXXXXXXXXXXXXXXXXXXoooo    XXXXoooo    ",
"    XXXXXXXX    ooooXXXXXXXXXXXXXXXXXXXXoooooooo    ooooXXXX    ",
"    XXXXXXXX    ooooXXXXXXXXXXXXXXXXXXXXoooooooo    ooooXXXX    ",
"    XXXXXXXX    ooooXXXXXXXXXXXXXXXXXXXXoooooooo    ooooXXXX    ",
"    XXXXXXXX    ooooXXXXXXXXXXXXXXXXXXXXoooooooo    ooooXXXX    ",
"    ooooXXXX    ooooXXXXXXXXooooooooXXXXXXXXoooo    ooooXXXX    ",
"    ooooXXXX    ooooXXXXXXXXooooooooXXXXXXXXoooo    ooooXXXX    ",
"    ooooXXXX    ooooXXXXXXXXooooooooXXXXXXXXoooo    ooooXXXX    ",
"    ooooXXXX    ooooXXXXXXXXooooooooXXXXXXXXoooo    ooooXXXX    ",
"    ooooXXXX    ooooXXXXXXXXooooXXXXXXXXoooooooo    XXXXXXXX    ",
"    ooooXXXX    ooooXXXXXXXXooooXXXXXXXXoooooooo    XXXXXXXX    ",
"    ooooXXXX    ooooXXXXXXXXooooXXXXXXXXoooooooo    XXXXXXXX    ",
"    ooooXXXX    ooooXXXXXXXXooooXXXXXXXXoooooooo    XXXXXXXX    ",
"    XXXXXXXX    ooooXXXXooooXXXXXXXXXXXXXXXXoooo    ooooXXXX    ",
"    XXXXXXXX    ooooXXXXooooXXXXXXXXXXXXXXXXoooo    ooooXXXX    ",
"    XXXXXXXX    ooooXXXXooooXXXXXXXXXXXXXXXXoooo    ooooXXXX    ",
"    XXXXXXXX    ooooXXXXooooXXXXXXXXXXXXXXXXoooo    ooooXXXX    ",
"    ooooXXXX    ooooXXXXXXXXXXXXooooXXXXXXXXoooo    XXXXXXXX    ",
"    ooooXXXX    ooooXXXXXXXXXXXXooooXXXXXXXXoooo    XXXXXXXX    ",
"    ooooXXXX    ooooXXXXXXXXXXXXooooXXXXXXXXoooo    XXXXXXXX    ",
"    ooooXXXX    ooooXXXXXXXXXXXXooooXXXXXXXXoooo    XXXXXXXX    ",
"    XXXXXXXX    ooooXXXXooooooooXXXXXXXXXXXXoooo    XXXXXXXX    ",
"    XXXXXXXX    ooooXXXXooooooooXXXXXXXXXXXXoooo    XXXXXXXX    ",
"    XXXXXXXX    ooooXXXXooooooooXXXXXXXXXXXXoooo    XXXXXXXX    ",
"    XXXXXXXX    ooooXXXXooooooooXXXXXXXXXXXXoooo    XXXXXXXX    ",
"    XXXXoooo    ooooXXXXXXXXXXXXXXXXXXXXoooooooo    XXXXoooo    ",
"    XXXXoooo    ooooXXXXXXXXXXXXXXXXXXXXoooooooo    XXXXoooo    ",
"    XXXXoooo    ooooXXXXXXXXXXXXXXXXXXXXoooooooo    XXXXoooo    ",
"    XXXXoooo    ooooXXXXXXXXXXXXXXXXXXXXoooooooo    XXXXoooo    ",
"    ooooXXXX    ooooooooXXXXXXXXooooXXXXXXXXoooo    XXXXoooo    ",
"    ooooXXXX    ooooooooXXXXXXXXooooXXXXXXXXoooo    XXXXoooo    ",
"    ooooXXXX    ooooooooXXXXXXXXooooXXXXXXXXoooo    XXXXoooo    ",
"    ooooXXXX    ooooooooXXXXXXXXooooXXXXXXXXoooo    XXXXoooo    ",
"    oooooooo    oooooooooooooooooooooooooooooooo    oooooooo    ",
"    oooooooo    oooooooooooooooooooooooooooooooo    oooooooo    ",
"    oooooooo    oooooooooooooooooooooooooooooooo    oooooooo    ",
"    oooooooo    oooooooooooooooooooooooooooooooo    oooooooo    ",
"                                                                ",
"                                                                ",
"                                                                ",
"                                                                "
};
