/* XPM */
static char *door_closed64[] = {
/* columns rows colors chars-per-pixel */
"64 64 4 1 ",
"  c #14182E",
". c #52333F",
"X c #8F4D57",
"o c #BD6A62",
/* pixels */
"                                                                ",
"                                                                ",
"                                                                ",
"                                                                ",
"    ooooooooooooXXXXooooooooXXXXooooXXXXooooXXXXXXXXXXXX....    ",
"    ooooooooooooXXXXooooooooXXXXooooXXXXooooXXXXXXXXXXXX....    ",
"    ooooooooooooXXXXooooooooXXXXooooXXXXooooXXXXXXXXXXXX....    ",
"    ooooooooooooXXXXooooooooXXXXooooXXXXooooXXXXXXXXXXXX....    ",
"    XXXXXXXXXXXXXXXXXXXXXXXXXXXXXXXXXXXXXXXXXXXXXXXX........    ",
"    XXXXXXXXXXXXXXXXXXXXXXXXXXXXXXXXXXXXXXXXXXXXXXXX........    ",
"    XXXXXXXXXXXXXXXXXXXXXXXXXXXXXXXXXXXXXXXXXXXXXXXX........    ",
"    XXXXXXXXXXXXXXXXXXXXXXXXXXXXXXXXXXXXXXXXXXXXXXXX........    ",
"                                                                ",
"                                                                ",
"                                                                ",
"                                                                ",
"    ........    ................................    ........    ",
"    ........    ................................    ........    ",
"    ........    ................................    ........    ",
"    ........    ................................    ........    ",
"    XXXX....    ........XXXXXXXXXXXXXXXXXXXX....    XXXX....    ",
"    XXXX....    ........XXXXXXXXXXXXXXXXXXXX....    XXXX....    ",
"    XXXX....    ........XXXXXXXXXXXXXXXXXXXX....    XXXX....    ",
"    XXXX....    ........XXXXXXXXXXXXXXXXXXXX....    XXXX....    ",
"    XXXXXXXX    ....XXXXXXXXXXXXXXXXXXXX........    ooooXXXX    ",
"    XXXXXXXX    ....XXXXXXXXXXXXXXXXXXXX........    ooooXXXX    ",
"    XXXXXXXX    ....XXXXXXXXXXXXXXXXXXXX........    ooooXXXX    ",
"    XXXXXXXX    ....XXXXXXXXXXXXXXXXXXXX........    ooooXXXX    ",
"    ooooXXXX    ....XXXXXXXX........XXXXXXXX....    ooooXXXX    ",
"    ooooXXXX    ....XXXXXXXX........XXXXXXXX....    ooooXXXX    ",
"    ooooXXXX    ....XXXXXXXX........XXXXXXXX....    ooooXXXX    ",
"    ooooXXXX    ....XXXXXXXX........XXXXXXXX....    ooooXXXX    ",
"    ooooXXXX    ....XXXXXXXX....XXXXXXXX........    XXXXXXXX    ",
"    ooooXXXX    ....XXXXXXXX....XXXXXXXX........    XXXXXXXX    ",
"    ooooXXXX    ....XXXXXXXX....XXXXXXXX........    XXXXXXXX    ",
"    ooooXXXX    ....XXXXXXXX....XXXXXXXX........    XXXXXXXX    ",
"    XXXXXXXX    ....XXXX....XXXXXXXXXXXXXXXX....    ooooXXXX    ",
"    XXXXXXXX    ....XXXX....XXXXXXXXXXXXXXXX....    ooooXXXX    ",
"    XXXXXXXX    ....XXXX....XXXXXXXXXXXXXXXX....    ooooXXXX    ",
"    XXXXXXXX    ....XXXX....XXXXXXXXXXXXXXXX....    ooooXXXX    ",
"    ooooXXXX    ....XXXXXXXXXXXX....XXXXXXXX....    XXXXXXXX    ",
"    ooooXXXX    ....XXXXXXXXXXXX....XXXXXXXX....    XXXXXXXX    ",
"    ooooXXXX    ....XXXXXXXXXXXX....XXXXXXXX....    XXXXXXXX    ",
"    ooooXXXX    ....XXXXXXXXXXXX....XXXXXXXX....    XXXXXXXX    ",
"    XXXXXXXX    ....XXXX........XXXXXXXXXXXX....    XXXXXXXX    ",
"    XXXXXXXX    ....XXXX........XXXXXXXXXXXX....    XXXXXXXX    ",
"    XXXXXXXX    ....XXXX........XXXXXXXXXXXX....    XXXXXXXX    ",
"    XXXXXXXX    ....XXXX........XXXXXXXXXXXX....    XXXXXXXX    ",
"    XXXX....    ....XXXXXXXXXXXXXXXXXXXX........    XXXX....    ",
"    XXXX....    ....XXXXXXXXXXXXXXXXXXXX........    XXXX....    ",
"    XXXX....    ....XXXXXXXXXXXXXXXXXXXX........    XXXX....    ",
"    XXXX....    ....XXXXXXXXXXXXXXXXXXXX........    XXXX....    ",
"    ....XXXX    ........XXXXXXXX....XXXXXXXX....    XXXX....    ",
"    ....XXXX    ........XXXXXXXX....XXXXXXXX....    XXXX....    ",
"    ....XXXX    ........XXXXXXXX....XXXXXXXX....    XXXX....    ",
"    ....XXXX    ........XXXXXXXX....XXXXXXXX....    XXXX....    ",
"    ........    ................................    ........    ",
"    ........    ................................    ........    ",
"    ........    ................................    ........    ",
"    ........    ................................    ........    ",
"                                                                ",
"                                                                ",
"                                                                ",
"                                                                "
};
