/* XPM */
static char * goblin64_xpm[] = {
"64 64 10 1",
" 	c #291D2B",
".	c #14182E",
"+	c #63AB3F",
"@	c #2F5753",
"#	c #3A1D4F",
"$	c #283540",
"%	c #FFEE83",
"&	c #F0B541",
"*	c #8F4Z57",
"=	c #52FD3F",
"            ....                                ........        ",
"            ....                                ........        ",
"            ....                                ........        ",
"            ....                                ........        ",
"        ....++++....                        ....####....        ",
"        ....++++....                        ....####....        ",
"        ....++++....                        ....####....        ",
"        ....++++....                        ....####....        ",
"    ....++++########....                ....########....        ",
"    ....++++########....                ....########....        ",
"    ....++++########....                ....########....        ",
"    ....++++########....                ....########....        ",
"....####################................############....        ",
"....####################................############....        ",
"....####################................############....        ",
"....####################................############....        ",
"........########################################....            ",
"........########################################....            ",
"........########################################....            ",
"........########################################....            ",
"    ....&&&&....############################&&&&....            ",
"    ....&&&&....############################&&&&....            ",
"    ....&&&&....############################&&&&....            ",
"    ....&&&&....############################&&&&....            ",
"        ....    ....########################&&&&....            ",
"        ....    ....########################&&&&....            ",
"        ....    ....########################&&&&....            ",
"        ....    ....########################&&&&....            ",
"                    ....####################....                ",
"                    ....####################....                ",
"                    ....####################....                ",
"                    ....####################....                ",
"                ....####################....                    ",
"                ....####################....                    ",
"                ....####################....                    ",
"                ....####################....                    ",
"            ....############################....                ",
"            ....############################....                ",
"            ....############################....                ",
"            ....############################....                ",
"        ....####################################....            ",
"        ....####################################....            ",
"        ....####################################....            ",
"        ....####################################....            ",
"        ....########################################....        ",
"        ....########################################....        ",
"        ....########################################....        ",
"        ....########################################....        ",
"        ....########....############################....        ",
"        ....########....############################....        ",
"        ....########....############################....        ",
"        ....########....############################....        ",
"        ....########....********************########....        ",
"        ....########....********************########....        ",
"        ....########....********************########....        ",
"        ....########....********************########....        ",
"            ............********************........            ",
"            ............********************........            ",
"            ............********************........            ",
"            ............********************........            ",
"                    ....####............####....                ",
"                    ....####............####....                ",
"                    ....####............####....                ",
"                    ....####............####....                "};
