/* XPM */
static char *goblin[] = {
/* columns rows colors chars-per-pixel */
"16 16 10 1 ",
"  c #14182E",
". c #291D2B",
"X c #52333F",
"o c #283540",
"O c #2F5753",
"+ c #3B7D4F",
"@ c #8F4D57",
"# c #63AB3F",
"$ c #F0B541",
"% c #FFEE83",
/* pixels */
"... ........  ..",
".. # ...... O ..",
". #O+ .... Oo ..",
" OOOO+    OOo ..",
"  %OO+++++Oo ...",
". $ O++%%Oo$ ...",
".. . ++%%+O$ ...",
"..... +++OO ....",
".... ooOOO .....",
"... oo++OOo ....",
".. o+OO++Ooo ...",
".. O+Oo++OOoo ..",
".. OO o++OOoo ..",
".. OO @@@XXoo ..",
"...   @@XXX  ...",
"..... +   O ...."
};
