/* XPM */
static char *ground2[] = {
/* columns rows colors chars-per-pixel */
"16 16 2 1 ",
"  c #291D2B",
". c #3D2936",
/* pixels */
"                ",
"  ......        ",
" ........       ",
" .........   .  ",
"  ........  ... ",
"   ......  .... ",
"      ..  ....  ",
"          ....  ",
"   ....   ....  ",
"  ......  ...   ",
" ........  .    ",
" ........    .  ",
"  ........  ... ",
"  ........ .... ",
"   ......  .... ",
"                "
};
