/* XPM */
static char *jar[] = {
/* columns rows colors chars-per-pixel */
"16 16 6 1 ",
"  c #14182E",
". c #291D2B",
"X c #3D2936",
"o c #52333F",
"O c #8F4D57",
"+ c #BD6A62",
/* pixels */
"................",
"................",
"................",
".....      .....",
"..... O+OO .....",
"...... +O ......",
"..... ++OO .....",
"..... +OOo .....",
".... +OOOoo ....",
".... OOOooo ....",
".... oooooX ....",
"..... XXXX .....",
"....        ....",
"................",
"................",
"................"
};
