/* XPM */
static char * wall64_xpm[] = {
"64 64 5 1",
" 	c #14182E",
".	c #52333F",
"+	c #3D2936",
"@	c #8F4D57",
"#	c #291D2A",
"                                                                ",
"                                                                ",
"                                                                ",
"                                                                ",
"    ########################################################    ",
"    ########################################################    ",
"    ########################################################    ",
"    ########################################################    ",
"    ########################################################    ",
"    ########################################################    ",
"    ########################################################    ",
"    ########################################################    ",
"    ########################################################    ",
"    ########################################################    ",
"    ########################################################    ",
"    ########################################################    ",
"    ########################################################    ",
"    ########################################################    ",
"    ########################################################    ",
"    ########################################################    ",
"    ########################################################    ",
"    ########################################################    ",
"    ########################################################    ",
"    ########################################################    ",
"    ########################################################    ",
"    ########################################################    ",
"    ########################################################    ",
"    ########################################################    ",
"    ########################################################    ",
"    ########################################################    ",
"    ########################################################    ",
"    ########################################################    ",
"    ########################################################    ",
"    ########################################################    ",
"    ########################################################    ",
"    ########################################################    ",
"    ########################################################    ",
"    ########################################################    ",
"    ########################################################    ",
"    ########################################################    ",
"    ########################################################    ",
"    ########################################################    ",
"    ########################################################    ",
"    ########################################################    ",
"    ########################################################    ",
"    ########################################################    ",
"    ########################################################    ",
"    ########################################################    ",
"    ########################################################    ",
"    ########################################################    ",
"    ########################################################    ",
"    ########################################################    ",
"    ########################################################    ",
"    ########################################################    ",
"    ########################################################    ",
"    ########################################################    ",
"    ########################################################    ",
"    ########################################################    ",
"    ########################################################    ",
"    ########################################################    ",
"                                                                ",
"                                                                ",
"                                                                ",
"                                                                "};
