/* XPM */
static char *wall[] = {
/* columns rows colors chars-per-pixel */
"16 16 5 1 ",
"  c #14182E",
". c #291D2B",
"X c #3D2936",
"o c #52333F",
"O c #8F4D57",
/* pixels */
"                ",
" oooooooooXXXXX ",
" oXXXXXXXXOOoo. ",
" oXXXOooXXOooo. ",
" oXXOooooXoooo. ",
" oXOoooooXXooo. ",
" oooooooXXXXoo. ",
" ooooooXXXXXXX. ",
" oXooXXXXOOoXX. ",
" oXXXXXXOOoooo. ",
" oXXXXXOoooooo. ",
" XoOOXXooooooo. ",
" XoooOXXoooooo. ",
" XooooXXXXoooo. ",
" X............. ",
"                "
};
